<?xml version="1.0" encoding="UTF-8" standalone="no"?>
<!-- Created with Inkscape (http://www.inkscape.org/) -->

<svg
   xmlns:dc="http://purl.org/dc/elements/1.1/"
   xmlns:cc="http://creativecommons.org/ns#"
   xmlns:rdf="http://www.w3.org/1999/02/22-rdf-syntax-ns#"
   xmlns:svg="http://www.w3.org/2000/svg"
   xmlns="http://www.w3.org/2000/svg"
   xmlns:sodipodi="http://sodipodi.sourceforge.net/DTD/sodipodi-0.dtd"
   xmlns:inkscape="http://www.inkscape.org/namespaces/inkscape"
   width="744.09448819"
   height="1052.3622047"
   id="svg2"
   version="1.1"
   inkscape:version="0.48.2 r9819"
   sodipodi:docname="fit.svg">
  <defs
     id="defs4">
    <inkscape:path-effect
       effect="spiro"
       id="path-effect3031"
       is_visible="true" />
    <inkscape:path-effect
       effect="spiro"
       id="path-effect3027"
       is_visible="true" />
    <inkscape:path-effect
       effect="spiro"
       id="path-effect3023"
       is_visible="true" />
    <inkscape:path-effect
       effect="spiro"
       id="path-effect3019"
       is_visible="true" />
  </defs>
  <sodipodi:namedview
     id="base"
     pagecolor="#ffffff"
     bordercolor="#666666"
     borderopacity="1.0"
     inkscape:pageopacity="0.0"
     inkscape:pageshadow="2"
     inkscape:zoom="7.9195959"
     inkscape:cx="239.0302"
     inkscape:cy="587.52999"
     inkscape:document-units="px"
     inkscape:current-layer="layer1"
     showgrid="false"
     inkscape:object-paths="true"
     inkscape:window-width="1600"
     inkscape:window-height="837"
     inkscape:window-x="-8"
     inkscape:window-y="-8"
     inkscape:window-maximized="1">
    <inkscape:grid
       type="xygrid"
       id="grid3047" />
  </sodipodi:namedview>
  <metadata
     id="metadata7">
    <rdf:RDF>
      <cc:Work
         rdf:about="">
        <dc:format>image/svg+xml</dc:format>
        <dc:type
           rdf:resource="http://purl.org/dc/dcmitype/StillImage" />
        <dc:title></dc:title>
      </cc:Work>
    </rdf:RDF>
  </metadata>
  <g
     inkscape:label="Layer 1"
     inkscape:groupmode="layer"
     id="layer1">
    <path
       style="fill:#999999;stroke:#000000;stroke-width:0.30000000999999998;stroke-linecap:butt;stroke-linejoin:miter;stroke-miterlimit:4;stroke-opacity:0.39215687;stroke-dasharray:none"
       d="m 150,452.36218 105,0"
       id="path3817"
       inkscape:connector-curvature="0" />
    <path
       style="fill:#999999;stroke:#000000;stroke-width:0.30000000999999998;stroke-linecap:butt;stroke-linejoin:miter;stroke-miterlimit:4;stroke-opacity:0.39215687;stroke-dasharray:none"
       d="m 150,447.36218 105,0"
       id="path3817-1"
       inkscape:connector-curvature="0" />
    <path
       style="fill:#999999;stroke:#000000;stroke-width:0.30000000999999998;stroke-linecap:butt;stroke-linejoin:miter;stroke-miterlimit:4;stroke-opacity:0.39215687;stroke-dasharray:none"
       d="m 150,442.36218 105,0"
       id="path3817-7"
       inkscape:connector-curvature="0" />
    <path
       style="fill:#999999;stroke:#000000;stroke-width:0.28062433;stroke-linecap:butt;stroke-linejoin:miter;stroke-miterlimit:4;stroke-opacity:0.39215686;stroke-dasharray:none"
       d="m 255,452.36218 0,-35"
       id="path3817-2"
       inkscape:connector-curvature="0" />
    <path
       style="fill:#999999;stroke:#000000;stroke-width:0.30000000999999998;stroke-linecap:butt;stroke-linejoin:miter;stroke-miterlimit:4;stroke-opacity:0.39215687;stroke-dasharray:none"
       d="m 150,437.36218 105,0"
       id="path3817-1-4"
       inkscape:connector-curvature="0" />
    <path
       style="fill:#999999;stroke:#000000;stroke-width:0.28062433;stroke-linecap:butt;stroke-linejoin:miter;stroke-miterlimit:4;stroke-opacity:0.39215686;stroke-dasharray:none"
       d="m 240,452.36218 0,-35"
       id="path3817-1-7"
       inkscape:connector-curvature="0" />
    <path
       style="fill:#999999;stroke:#000000;stroke-width:0.30000000999999998;stroke-linecap:butt;stroke-linejoin:miter;stroke-miterlimit:4;stroke-opacity:0.39215687;stroke-dasharray:none"
       d="m 150,432.36218 105,0"
       id="path3817-0"
       inkscape:connector-curvature="0" />
    <path
       style="fill:#999999;stroke:#000000;stroke-width:0.28062433;stroke-linecap:butt;stroke-linejoin:miter;stroke-miterlimit:4;stroke-opacity:0.39215686;stroke-dasharray:none"
       d="m 225,452.36218 0,-35"
       id="path3817-7-6"
       inkscape:connector-curvature="0" />
    <path
       style="fill:#999999;stroke:#000000;stroke-width:0.30000000999999998;stroke-linecap:butt;stroke-linejoin:miter;stroke-miterlimit:4;stroke-opacity:0.39215687;stroke-dasharray:none"
       d="m 150,427.36218 105,0"
       id="path3817-1-9"
       inkscape:connector-curvature="0" />
    <path
       style="fill:#999999;stroke:#000000;stroke-width:0.28062433;stroke-linecap:butt;stroke-linejoin:miter;stroke-miterlimit:4;stroke-opacity:0.39215686;stroke-dasharray:none"
       d="m 210,452.36218 0,-35"
       id="path3817-1-4-1"
       inkscape:connector-curvature="0" />
    <path
       style="fill:#999999;stroke:#000000;stroke-width:0.30000000999999998;stroke-linecap:butt;stroke-linejoin:miter;stroke-miterlimit:4;stroke-opacity:0.39215687;stroke-dasharray:none"
       d="m 150,422.36218 105,0"
       id="path3817-7-4"
       inkscape:connector-curvature="0" />
    <path
       style="fill:#999999;stroke:#000000;stroke-width:0.28062433;stroke-linecap:butt;stroke-linejoin:miter;stroke-miterlimit:4;stroke-opacity:0.39215686;stroke-dasharray:none"
       d="m 195,452.36218 0,-35"
       id="path3817-0-4"
       inkscape:connector-curvature="0" />
    <path
       style="fill:#999999;stroke:#000000;stroke-width:0.30000000999999998;stroke-linecap:butt;stroke-linejoin:miter;stroke-miterlimit:4;stroke-opacity:0.39215687;stroke-dasharray:none"
       d="m 150,417.36218 105,0"
       id="path3817-1-4-8"
       inkscape:connector-curvature="0" />
    <path
       style="fill:#999999;stroke:#000000;stroke-width:0.28062433;stroke-linecap:butt;stroke-linejoin:miter;stroke-miterlimit:4;stroke-opacity:0.39215686;stroke-dasharray:none"
       d="m 180,452.36218 0,-35"
       id="path3817-1-9-2"
       inkscape:connector-curvature="0" />
    <path
       style="fill:none;stroke:#ff9000;stroke-width:0.9173696;stroke-linecap:butt;stroke-linejoin:miter;stroke-miterlimit:4;stroke-opacity:1;stroke-dasharray:none"
       d="m 150,445.77038 c 7.32045,-1.93216 12.27826,-15.12569 16.74897,-21.07165 0.91764,-1.22042 4.5725,2.46904 4.97942,3.01024 2.51904,3.35024 2.24099,15.02139 4.52676,18.06141 0.90479,1.20336 2.54592,2.18193 3.16872,3.01022 0.62132,0.82634 0.50653,1.80616 1.8107,1.80616 6.38301,0 8.05375,-7.76384 12.67489,-10.83685 2.94269,-1.95686 5.02284,8.97297 9.05351,3.61227 0.22633,-0.30102 1.13169,0.30103 1.35803,0 2.48226,-3.30134 6.67601,-8.87894 9.50615,-12.64298 1.33123,-1.7705 3.89321,-9.39217 4.97944,-10.83684 1.01432,-1.34902 3.65178,-2.44859 4.97941,-4.21433 2.05983,-2.73953 4.0741,10.48547 4.0741,12.04094 0,6.05388 3.55957,14.96897 6.33744,18.66345 0.26393,0.35105 3.86653,3.28626 4.97942,1.80614 4.15094,-5.52066 8.73446,-9.20844 12.67489,-14.44912 1.13094,-1.5041 6.43692,-1.2041 8.14815,-1.2041"
       id="path3035"
       inkscape:connector-curvature="0" />
    <text
       xml:space="preserve"
       style="font-size:3.88685393px;font-style:normal;font-variant:normal;font-weight:normal;font-stretch:normal;line-height:125%;letter-spacing:0px;word-spacing:0px;fill:#000000;fill-opacity:1;stroke:none;font-family:Segoe UI;-inkscape-font-specification:Segoe UI"
       x="145.86537"
       y="404.62463"
       id="text3903"
       sodipodi:linespacing="125%"
       transform="scale(0.96664467,1.0345063)"><tspan
         sodipodi:role="line"
         x="145.86537"
         y="404.62463"
         id="tspan3907">111</tspan><tspan
         sodipodi:role="line"
         x="145.86537"
         y="409.48322"
         id="tspan3911">110</tspan><tspan
         sodipodi:role="line"
         x="145.86537"
         y="414.34177"
         id="tspan3913">101</tspan><tspan
         sodipodi:role="line"
         x="145.86537"
         y="419.20035"
         id="tspan3915">100</tspan><tspan
         sodipodi:role="line"
         x="145.86537"
         y="424.0589"
         id="tspan3917">011</tspan><tspan
         sodipodi:role="line"
         x="145.86537"
         y="428.91748"
         id="tspan3919">010</tspan><tspan
         sodipodi:role="line"
         x="145.86537"
         y="433.77603"
         id="tspan3921">001</tspan><tspan
         sodipodi:role="line"
         x="145.86537"
         y="438.63461"
         id="tspan3923">000</tspan><tspan
         sodipodi:role="line"
         x="145.86537"
         y="443.49316"
         id="tspan3925" /></text>
    <path
       style="fill:#999999;stroke:#000000;stroke-width:0.28062433;stroke-linecap:butt;stroke-linejoin:miter;stroke-miterlimit:4;stroke-opacity:0.39215686;stroke-dasharray:none"
       d="m 165,452.36218 0,-35"
       id="path3817-7-4-3"
       inkscape:connector-curvature="0" />
    <path
       style="fill:#999999;stroke:#000000;stroke-width:0.28062433;stroke-linecap:butt;stroke-linejoin:miter;stroke-miterlimit:4;stroke-opacity:0.39215686;stroke-dasharray:none"
       d="m 150,452.36218 0,-35"
       id="path3817-1-4-8-2"
       inkscape:connector-curvature="0" />
    <path
       sodipodi:type="arc"
       style="fill:#4a99a3;fill-opacity:1;fill-rule:evenodd;stroke:none"
       id="path3994"
       sodipodi:cx="165.75893"
       sodipodi:cy="456.60324"
       sodipodi:rx="0.7589286"
       sodipodi:ry="0.7589286"
       d="m 166.51785,456.60324 a 0.7589286,0.7589286 0 1 1 -1.51785,0 0.7589286,0.7589286 0 1 1 1.51785,0 z"
       transform="matrix(2.4470597,0,0,2.4470597,-240.62199,-689.83035)" />
    <path
       sodipodi:type="arc"
       style="fill:#4a99a3;fill-opacity:1;fill-rule:evenodd;stroke:none"
       id="path3994-1"
       sodipodi:cx="165.75893"
       sodipodi:cy="456.60324"
       sodipodi:rx="0.7589286"
       sodipodi:ry="0.7589286"
       d="m 166.51785,456.60324 a 0.7589286,0.7589286 0 1 1 -1.51785,0 0.7589286,0.7589286 0 1 1 1.51785,0 z"
       transform="matrix(2.4470597,0,0,2.4470597,-225.62199,-664.83035)" />
    <path
       sodipodi:type="arc"
       style="fill:#4a99a3;fill-opacity:1;fill-rule:evenodd;stroke:none"
       id="path3994-1-6"
       sodipodi:cx="165.75893"
       sodipodi:cy="456.60324"
       sodipodi:rx="0.7589286"
       sodipodi:ry="0.7589286"
       d="m 166.51785,456.60324 a 0.7589286,0.7589286 0 1 1 -1.51785,0 0.7589286,0.7589286 0 1 1 1.51785,0 z"
       transform="matrix(2.4470597,0,0,2.4470597,-210.47913,-679.97321)" />
    <path
       sodipodi:type="arc"
       style="fill:#4a99a3;fill-opacity:1;fill-rule:evenodd;stroke:none"
       id="path3994-1-8"
       sodipodi:cx="165.75893"
       sodipodi:cy="456.60324"
       sodipodi:rx="0.7589286"
       sodipodi:ry="0.7589286"
       d="m 166.51785,456.60324 a 0.7589286,0.7589286 0 1 1 -1.51785,0 0.7589286,0.7589286 0 1 1 1.51785,0 z"
       transform="matrix(2.4470597,0,0,2.4470597,-195.62199,-679.83035)" />
    <path
       sodipodi:type="arc"
       style="fill:#4a99a3;fill-opacity:1;fill-rule:evenodd;stroke:none"
       id="path3994-1-5"
       sodipodi:cx="165.75893"
       sodipodi:cy="456.60324"
       sodipodi:rx="0.7589286"
       sodipodi:ry="0.7589286"
       d="m 166.51785,456.60324 a 0.7589286,0.7589286 0 1 1 -1.51785,0 0.7589286,0.7589286 0 1 1 1.51785,0 z"
       transform="matrix(2.4470597,0,0,2.4470597,-180.62199,-699.83035)" />
    <path
       sodipodi:type="arc"
       style="fill:#4a99a3;fill-opacity:1;fill-rule:evenodd;stroke:none"
       id="path3994-1-5-7"
       sodipodi:cx="165.75893"
       sodipodi:cy="456.60324"
       sodipodi:rx="0.7589286"
       sodipodi:ry="0.7589286"
       d="m 166.51785,456.60324 a 0.7589286,0.7589286 0 1 1 -1.51785,0 0.7589286,0.7589286 0 1 1 1.51785,0 z"
       transform="matrix(2.4470597,0,0,2.4470597,-165.47913,-669.97321)" />
    <rect
       style="fill:#ffffff;fill-opacity:1;fill-rule:evenodd;stroke:none"
       id="rect4228"
       width="7"
       height="10"
       x="255.47351"
       y="428.52002" />
    <path
       sodipodi:type="arc"
       style="fill:#4a99a3;fill-opacity:1;fill-rule:evenodd;stroke:none"
       id="path3994-1-5-7-6"
       sodipodi:cx="165.75893"
       sodipodi:cy="456.60324"
       sodipodi:rx="0.7589286"
       sodipodi:ry="0.7589286"
       d="m 166.51785,456.60324 a 0.7589286,0.7589286 0 1 1 -1.51785,0 0.7589286,0.7589286 0 1 1 1.51785,0 z"
       transform="matrix(2.4470597,0,0,2.4470597,-150.62199,-685.11606)" />
    <path
       sodipodi:type="arc"
       style="fill:#4a99a3;fill-opacity:1;fill-rule:evenodd;stroke:none"
       id="path3994-18"
       sodipodi:cx="165.75893"
       sodipodi:cy="456.60324"
       sodipodi:rx="0.7589286"
       sodipodi:ry="0.7589286"
       d="m 166.51785,456.60324 a 0.7589286,0.7589286 0 1 1 -1.51785,0 0.7589286,0.7589286 0 1 1 1.51785,0 z"
       transform="matrix(2.4470597,0,0,2.4470597,-255.76485,-669.97321)" />
    <path
       style="fill:#4a99a3;fill-opacity:1;stroke:#4a99a3;stroke-width:0.5;stroke-linecap:butt;stroke-linejoin:miter;stroke-opacity:1;stroke-miterlimit:4;stroke-dasharray:none"
       d="m 150,452.36218 0,-5 0,0"
       id="path4100"
       inkscape:connector-curvature="0" />
    <path
       style="fill:#4a99a3;fill-opacity:1;stroke:#4a99a3;stroke-width:0.5;stroke-linecap:butt;stroke-linejoin:miter;stroke-opacity:1;stroke-miterlimit:4;stroke-dasharray:none"
       d="m 165,452.36218 0,-25 0,0"
       id="path4100-9"
       inkscape:connector-curvature="0" />
    <path
       style="fill:#4a99a3;fill-opacity:1;stroke:#4a99a3;stroke-width:0.5;stroke-linecap:butt;stroke-linejoin:miter;stroke-miterlimit:4;stroke-opacity:1;stroke-dasharray:none"
       d="m 195,452.36218 0,-14 0,0"
       id="path4100-9-2"
       inkscape:connector-curvature="0" />
    <path
       style="fill:#4a99a3;fill-opacity:1;stroke:#4a99a3;stroke-width:0.5;stroke-linecap:butt;stroke-linejoin:miter;stroke-miterlimit:4;stroke-opacity:1;stroke-dasharray:none"
       d="m 210,452.36218 0,-15 0,0"
       id="path4100-9-2-7"
       inkscape:connector-curvature="0" />
    <path
       style="fill:#4a99a3;fill-opacity:1;stroke:#4a99a3;stroke-width:0.5;stroke-linecap:butt;stroke-linejoin:miter;stroke-miterlimit:4;stroke-opacity:1;stroke-dasharray:none"
       d="m 225,452.36218 0,-33 0,0"
       id="path4100-9-2-7-9"
       inkscape:connector-curvature="0" />
    <path
       style="fill:#4a99a3;fill-opacity:1;stroke:#4a99a3;stroke-width:0.5;stroke-linecap:butt;stroke-linejoin:miter;stroke-miterlimit:4;stroke-opacity:1;stroke-dasharray:none"
       d="m 240,452.36218 0,-5 0,0"
       id="path4100-9-2-4"
       inkscape:connector-curvature="0" />
    <path
       style="fill:#4a99a3;fill-opacity:1;stroke:#4a99a3;stroke-width:0.5;stroke-linecap:butt;stroke-linejoin:miter;stroke-opacity:1;stroke-miterlimit:4;stroke-dasharray:none"
       d="m 255,452.36218 0,-20 0,0"
       id="path4100-9-2-7-9-3"
       inkscape:connector-curvature="0" />
    <path
       style="fill:#999999;stroke:#000000;stroke-width:0.30000001;stroke-linecap:butt;stroke-linejoin:miter;stroke-miterlimit:4;stroke-opacity:0.39215686;stroke-dasharray:none"
       d="m 149.88958,499.76328 105,0"
       id="path3817-4"
       inkscape:connector-curvature="0" />
    <path
       style="fill:#999999;stroke:#000000;stroke-width:0.30000001;stroke-linecap:butt;stroke-linejoin:miter;stroke-miterlimit:4;stroke-opacity:0.39215686;stroke-dasharray:none"
       d="m 149.88958,494.76328 105,0"
       id="path3817-1-96"
       inkscape:connector-curvature="0" />
    <path
       style="fill:#999999;stroke:#000000;stroke-width:0.30000001;stroke-linecap:butt;stroke-linejoin:miter;stroke-miterlimit:4;stroke-opacity:0.39215686;stroke-dasharray:none"
       d="m 149.88958,489.76328 105,0"
       id="path3817-7-3"
       inkscape:connector-curvature="0" />
    <path
       style="fill:#999999;stroke:#000000;stroke-width:0.28062433;stroke-linecap:butt;stroke-linejoin:miter;stroke-miterlimit:4;stroke-opacity:0.39215686;stroke-dasharray:none"
       d="m 254.88958,499.76328 0,-35"
       id="path3817-2-7"
       inkscape:connector-curvature="0" />
    <path
       style="fill:#999999;stroke:#000000;stroke-width:0.30000001;stroke-linecap:butt;stroke-linejoin:miter;stroke-miterlimit:4;stroke-opacity:0.39215686;stroke-dasharray:none"
       d="m 149.88958,484.76328 105,0"
       id="path3817-1-4-88"
       inkscape:connector-curvature="0" />
    <path
       style="fill:#999999;stroke:#000000;stroke-width:0.28062433;stroke-linecap:butt;stroke-linejoin:miter;stroke-miterlimit:4;stroke-opacity:0.39215686;stroke-dasharray:none"
       d="m 239.88958,499.76328 0,-35"
       id="path3817-1-7-2"
       inkscape:connector-curvature="0" />
    <path
       style="fill:#999999;stroke:#000000;stroke-width:0.30000001;stroke-linecap:butt;stroke-linejoin:miter;stroke-miterlimit:4;stroke-opacity:0.39215686;stroke-dasharray:none"
       d="m 149.88958,479.76328 105,0"
       id="path3817-0-9"
       inkscape:connector-curvature="0" />
    <path
       style="fill:#999999;stroke:#000000;stroke-width:0.28062433;stroke-linecap:butt;stroke-linejoin:miter;stroke-miterlimit:4;stroke-opacity:0.39215686;stroke-dasharray:none"
       d="m 224.88958,499.76328 0,-35"
       id="path3817-7-6-1"
       inkscape:connector-curvature="0" />
    <path
       style="fill:#999999;stroke:#000000;stroke-width:0.30000001;stroke-linecap:butt;stroke-linejoin:miter;stroke-miterlimit:4;stroke-opacity:0.39215686;stroke-dasharray:none"
       d="m 149.88958,474.76328 105,0"
       id="path3817-1-9-3"
       inkscape:connector-curvature="0" />
    <path
       style="fill:#999999;stroke:#000000;stroke-width:0.28062433;stroke-linecap:butt;stroke-linejoin:miter;stroke-miterlimit:4;stroke-opacity:0.39215686;stroke-dasharray:none"
       d="m 209.88958,499.76328 0,-35"
       id="path3817-1-4-1-5"
       inkscape:connector-curvature="0" />
    <path
       style="fill:#999999;stroke:#000000;stroke-width:0.30000001;stroke-linecap:butt;stroke-linejoin:miter;stroke-miterlimit:4;stroke-opacity:0.39215686;stroke-dasharray:none"
       d="m 149.88958,469.76328 105,0"
       id="path3817-7-4-9"
       inkscape:connector-curvature="0" />
    <path
       style="fill:#999999;stroke:#000000;stroke-width:0.28062433;stroke-linecap:butt;stroke-linejoin:miter;stroke-miterlimit:4;stroke-opacity:0.39215686;stroke-dasharray:none"
       d="m 194.88958,499.76328 0,-35"
       id="path3817-0-4-8"
       inkscape:connector-curvature="0" />
    <path
       style="fill:#999999;stroke:#000000;stroke-width:0.30000001;stroke-linecap:butt;stroke-linejoin:miter;stroke-miterlimit:4;stroke-opacity:0.39215686;stroke-dasharray:none"
       d="m 149.88958,464.76328 105,0"
       id="path3817-1-4-8-4"
       inkscape:connector-curvature="0" />
    <path
       style="fill:#999999;stroke:#000000;stroke-width:0.28062433;stroke-linecap:butt;stroke-linejoin:miter;stroke-miterlimit:4;stroke-opacity:0.39215686;stroke-dasharray:none"
       d="m 179.88958,499.76328 0,-35"
       id="path3817-1-9-2-0"
       inkscape:connector-curvature="0" />
    <text
       xml:space="preserve"
       style="font-size:3.88685393px;font-style:normal;font-variant:normal;font-weight:normal;font-stretch:normal;line-height:125%;letter-spacing:0px;word-spacing:0px;fill:#000000;fill-opacity:1;stroke:none;font-family:Segoe UI;-inkscape-font-specification:Segoe UI"
       x="145.75114"
       y="450.44464"
       id="text3903-6"
       sodipodi:linespacing="125%"
       transform="scale(0.96664467,1.0345063)"><tspan
         sodipodi:role="line"
         x="145.75114"
         y="450.44464"
         id="tspan3907-3">111</tspan><tspan
         sodipodi:role="line"
         x="145.75114"
         y="455.30322"
         id="tspan3911-6">110</tspan><tspan
         sodipodi:role="line"
         x="145.75114"
         y="460.16177"
         id="tspan3913-1">101</tspan><tspan
         sodipodi:role="line"
         x="145.75114"
         y="465.02036"
         id="tspan3915-5">100</tspan><tspan
         sodipodi:role="line"
         x="145.75114"
         y="469.87891"
         id="tspan3917-4">011</tspan><tspan
         sodipodi:role="line"
         x="145.75114"
         y="474.73749"
         id="tspan3919-2">010</tspan><tspan
         sodipodi:role="line"
         x="145.75114"
         y="479.59604"
         id="tspan3921-0">001</tspan><tspan
         sodipodi:role="line"
         x="145.75114"
         y="484.45462"
         id="tspan3923-9">000</tspan><tspan
         sodipodi:role="line"
         x="145.75114"
         y="489.31317"
         id="tspan3925-7" /></text>
    <path
       style="fill:#999999;stroke:#000000;stroke-width:0.28062433;stroke-linecap:butt;stroke-linejoin:miter;stroke-miterlimit:4;stroke-opacity:0.39215686;stroke-dasharray:none"
       d="m 164.88958,499.76328 0,-35"
       id="path3817-7-4-3-3"
       inkscape:connector-curvature="0" />
    <path
       style="fill:#999999;stroke:#000000;stroke-width:0.28062433;stroke-linecap:butt;stroke-linejoin:miter;stroke-miterlimit:4;stroke-opacity:0.39215686;stroke-dasharray:none"
       d="m 149.88958,499.76328 0,-35"
       id="path3817-1-4-8-2-7"
       inkscape:connector-curvature="0" />
    <path
       sodipodi:type="arc"
       style="fill:#4a99a3;fill-opacity:1;fill-rule:evenodd;stroke:none"
       id="path3994-2"
       sodipodi:cx="165.75893"
       sodipodi:cy="456.60324"
       sodipodi:rx="0.7589286"
       sodipodi:ry="0.7589286"
       d="m 166.51785,456.60324 a 0.7589286,0.7589286 0 1 1 -1.51785,0 0.7589286,0.7589286 0 1 1 1.51785,0 z"
       transform="matrix(2.4470597,0,0,2.4470597,-240.73241,-642.42928)" />
    <path
       sodipodi:type="arc"
       style="fill:#4a99a3;fill-opacity:1;fill-rule:evenodd;stroke:none"
       id="path3994-1-60"
       sodipodi:cx="165.75893"
       sodipodi:cy="456.60324"
       sodipodi:rx="0.7589286"
       sodipodi:ry="0.7589286"
       d="m 166.51785,456.60324 a 0.7589286,0.7589286 0 1 1 -1.51785,0 0.7589286,0.7589286 0 1 1 1.51785,0 z"
       transform="matrix(2.4470597,0,0,2.4470597,-225.73241,-617.42928)" />
    <path
       sodipodi:type="arc"
       style="fill:#4a99a3;fill-opacity:1;fill-rule:evenodd;stroke:none"
       id="path3994-1-6-1"
       sodipodi:cx="165.75893"
       sodipodi:cy="456.60324"
       sodipodi:rx="0.7589286"
       sodipodi:ry="0.7589286"
       d="m 166.51785,456.60324 a 0.7589286,0.7589286 0 1 1 -1.51785,0 0.7589286,0.7589286 0 1 1 1.51785,0 z"
       transform="matrix(2.4470597,0,0,2.4470597,-210.58955,-632.57208)" />
    <path
       sodipodi:type="arc"
       style="fill:#4a99a3;fill-opacity:1;fill-rule:evenodd;stroke:none"
       id="path3994-1-8-6"
       sodipodi:cx="165.75893"
       sodipodi:cy="456.60324"
       sodipodi:rx="0.7589286"
       sodipodi:ry="0.7589286"
       d="m 166.51785,456.60324 a 0.7589286,0.7589286 0 1 1 -1.51785,0 0.7589286,0.7589286 0 1 1 1.51785,0 z"
       transform="matrix(2.4470597,0,0,2.4470597,-195.73241,-632.42928)" />
    <path
       sodipodi:type="arc"
       style="fill:#4a99a3;fill-opacity:1;fill-rule:evenodd;stroke:none"
       id="path3994-1-5-5"
       sodipodi:cx="165.75893"
       sodipodi:cy="456.60324"
       sodipodi:rx="0.7589286"
       sodipodi:ry="0.7589286"
       d="m 166.51785,456.60324 a 0.7589286,0.7589286 0 1 1 -1.51785,0 0.7589286,0.7589286 0 1 1 1.51785,0 z"
       transform="matrix(2.4470597,0,0,2.4470597,-180.73241,-652.42928)" />
    <path
       sodipodi:type="arc"
       style="fill:#4a99a3;fill-opacity:1;fill-rule:evenodd;stroke:none"
       id="path3994-1-5-7-7"
       sodipodi:cx="165.75893"
       sodipodi:cy="456.60324"
       sodipodi:rx="0.7589286"
       sodipodi:ry="0.7589286"
       d="m 166.51785,456.60324 a 0.7589286,0.7589286 0 1 1 -1.51785,0 0.7589286,0.7589286 0 1 1 1.51785,0 z"
       transform="matrix(2.4470597,0,0,2.4470597,-165.58955,-622.57208)" />
    <rect
       style="fill:#ffffff;fill-opacity:1;fill-rule:evenodd;stroke:none"
       id="rect4228-5"
       width="7"
       height="10"
       x="255.3631"
       y="475.92111" />
    <path
       sodipodi:type="arc"
       style="fill:#4a99a3;fill-opacity:1;fill-rule:evenodd;stroke:none"
       id="path3994-1-5-7-6-4"
       sodipodi:cx="165.75893"
       sodipodi:cy="456.60324"
       sodipodi:rx="0.7589286"
       sodipodi:ry="0.7589286"
       d="m 166.51785,456.60324 a 0.7589286,0.7589286 0 1 1 -1.51785,0 0.7589286,0.7589286 0 1 1 1.51785,0 z"
       transform="matrix(2.4470597,0,0,2.4470597,-150.73241,-637.71498)" />
    <path
       sodipodi:type="arc"
       style="fill:#4a99a3;fill-opacity:1;fill-rule:evenodd;stroke:none"
       id="path3994-18-1"
       sodipodi:cx="165.75893"
       sodipodi:cy="456.60324"
       sodipodi:rx="0.7589286"
       sodipodi:ry="0.7589286"
       d="m 166.51785,456.60324 a 0.7589286,0.7589286 0 1 1 -1.51785,0 0.7589286,0.7589286 0 1 1 1.51785,0 z"
       transform="matrix(2.4470597,0,0,2.4470597,-255.87527,-622.57208)" />
    <path
       style="fill:#4a99a3;fill-opacity:1;stroke:#4a99a3;stroke-width:0.5;stroke-linecap:butt;stroke-linejoin:miter;stroke-miterlimit:4;stroke-opacity:1;stroke-dasharray:none"
       d="m 149.88958,499.76328 0,-5 0,0"
       id="path4100-2"
       inkscape:connector-curvature="0" />
    <path
       style="fill:#4a99a3;fill-opacity:1;stroke:#4a99a3;stroke-width:0.5;stroke-linecap:butt;stroke-linejoin:miter;stroke-miterlimit:4;stroke-opacity:1;stroke-dasharray:none"
       d="m 164.88958,499.76328 0,-25 0,0"
       id="path4100-9-0"
       inkscape:connector-curvature="0" />
    <path
       style="fill:#4a99a3;fill-opacity:1;stroke:#4a99a3;stroke-width:0.5;stroke-linecap:butt;stroke-linejoin:miter;stroke-miterlimit:4;stroke-opacity:1;stroke-dasharray:none"
       d="m 194.88958,499.76328 0,-14 0,0"
       id="path4100-9-2-0"
       inkscape:connector-curvature="0" />
    <path
       style="fill:#4a99a3;fill-opacity:1;stroke:#4a99a3;stroke-width:0.5;stroke-linecap:butt;stroke-linejoin:miter;stroke-miterlimit:4;stroke-opacity:1;stroke-dasharray:none"
       d="m 209.88958,499.76328 0,-15 0,0"
       id="path4100-9-2-7-1"
       inkscape:connector-curvature="0" />
    <path
       style="fill:#4a99a3;fill-opacity:1;stroke:#4a99a3;stroke-width:0.5;stroke-linecap:butt;stroke-linejoin:miter;stroke-miterlimit:4;stroke-opacity:1;stroke-dasharray:none"
       d="m 224.88958,499.76328 0,-33 0,0"
       id="path4100-9-2-7-9-4"
       inkscape:connector-curvature="0" />
    <path
       style="fill:#4a99a3;fill-opacity:1;stroke:#4a99a3;stroke-width:0.5;stroke-linecap:butt;stroke-linejoin:miter;stroke-miterlimit:4;stroke-opacity:1;stroke-dasharray:none"
       d="m 239.88958,499.76328 0,-5 0,0"
       id="path4100-9-2-4-6"
       inkscape:connector-curvature="0" />
    <path
       style="fill:#4a99a3;fill-opacity:1;stroke:#4a99a3;stroke-width:0.5;stroke-linecap:butt;stroke-linejoin:miter;stroke-miterlimit:4;stroke-opacity:1;stroke-dasharray:none"
       d="m 254.88958,499.76328 0,-20 0,0"
       id="path4100-9-2-7-9-3-0"
       inkscape:connector-curvature="0" />
    <path
       style="fill:none;stroke:#b137a3;stroke-width:1px;stroke-linecap:butt;stroke-linejoin:miter;stroke-opacity:0.90196078"
       d="m 149.88958,494.76328 15,-20 15,25 15,-15 15,0 15,-20 15,30 15,-15"
       id="path4230-7"
       inkscape:connector-curvature="0" />
  </g>
</svg>
